<svg xmlns="http://www.w3.org/2000/svg" viewBox="0 0 128 128"><rect width="128" height="128" rx="24" fill="#111"/><path d="M32 42h42v34a15 15 0 0 1-15 15H47a15 15 0 0 1-15-15V42z" fill="none" stroke="#fff" stroke-width="4.5"/><path d="M74 50h10a11 11 0 0 1 0 22H74" fill="none" stroke="#fff" stroke-width="4.5" stroke-linecap="round"/><path d="M42 32c-5 7 2 10-3 17" fill="none" stroke="#fff" stroke-width="4" stroke-linecap="round"/><path d="M56 32c-5 7 2 10-3 17" fill="none" stroke="#fff" stroke-width="4" stroke-linecap="round"/><path d="M64 40v12h4a4 4 0 0 1 4 4v4a4 4 0 0 1-4 4h-4v4a4 4 0 0 1-4 4h-4v-4a4 4 0 0 1-4-4v-4a4 4 0 0 1 4-4h4z" fill="none" stroke="#5a2d5a" stroke-width="2"/></svg>